<svg xmlns="http://www.w3.org/2000/svg" xmlns:xlink="http://www.w3.org/1999/xlink" viewBox="0 0 459.277 339.191">
  <defs>
    <style>
      .cls-1, .cls-5 {
        fill: #00cd70;
      }

      .cls-1, .cls-4, .cls-7 {
        opacity: 0.1;
      }

      .cls-2 {
        fill: url(#linear-gradient);
      }

      .cls-3 {
        fill: #fff;
      }

      .cls-6 {
        fill: #3f3d56;
      }

      .cls-8 {
        fill: #fbbebe;
      }

      .cls-9 {
        fill: url(#linear-gradient-2);
      }

      .cls-10 {
        fill: #cf6f80;
      }

      .cls-11 {
        fill: #512e4e;
      }

      .cls-12 {
        fill: #535461;
      }

      .cls-13 {
        fill: #9d9cb5;
      }

      .cls-14 {
        fill: none;
        stroke: #535461;
        stroke-miterlimit: 10;
        stroke-width: 2px;
      }
    </style>
    <linearGradient id="linear-gradient" x1="0.5" y1="1" x2="0.5" gradientUnits="objectBoundingBox">
      <stop offset="0" stop-color="gray" stop-opacity="0.251"/>
      <stop offset="0.54" stop-color="gray" stop-opacity="0.122"/>
      <stop offset="1" stop-color="gray" stop-opacity="0.102"/>
    </linearGradient>
    <linearGradient id="linear-gradient-2" x1="0.5" y1="1" x2="0.5" y2="0" xlink:href="#linear-gradient"/>
  </defs>
  <g id="undraw_doctors_hwty" transform="translate(-0.005 -0.003)">
    <path id="Path_425" data-name="Path 425" class="cls-1" d="M91.1,356.76h39.892v54.377H94.012c-.094.562-.189,1.12-.295,1.682h37.27v43.846a.561.561,0,0,1-.185-.071q-1.572-.625-3.145-1.325c-.224-.1-.444-.208-.672-.307q-1.572-.743-3.145-1.572c-.366-.193-.731-.393-1.089-.6a65.422,65.422,0,0,1-15.685-12.21c-.138-.13-.263-.271-.393-.393-.637-.692-1.262-1.392-1.867-2.107-.228-.263-.448-.531-.672-.786-.715-.873-1.407-1.777-2.076-2.685-.1-.138-.2-.271-.295-.393A58.066,58.066,0,0,1,95,421.995c-.055-.13-.106-.271-.157-.393-.542-1.376-1.034-2.771-1.458-4.194-.181-.594-.358-1.179-.507-1.8-.055-.177-.1-.358-.145-.535-2.209-8.707-2.465-17.756-2.465-26.762v-3.145q.047-5.515.13-11.019.031-1.415.059-2.842.083-3.613.236-7.241c.024-.668.055-1.341.09-2q.024-.578.059-1.156Q90.95,358.82,91.1,356.76Z" transform="translate(-60.758 -223.812)"/>
    <path id="Path_426" data-name="Path 426" class="cls-1" d="M160.064,160.05H138.18a166.577,166.577,0,0,1,11.64-16.015c3.255-3.994,6.683-7.886,10.244-11.636Z" transform="translate(-89.834 -87.648)"/>
    <path id="Path_427" data-name="Path 427" class="cls-1" d="M132.456,207v57.188H92.69c0-.165.024-.334.039-.5.035-.452.071-.9.11-1.352.039-.527.09-1.053.142-1.572s.1-1.148.165-1.718.114-1.148.177-1.718.126-1.14.2-1.706.134-1.14.212-1.706c.059-.468.118-.94.185-1.411.09-.664.185-1.329.283-1.989a1.891,1.891,0,0,1,.047-.3,137.16,137.16,0,0,1,2.925-14.356,106.3,106.3,0,0,1,4.933-14.545A109.23,109.23,0,0,1,109.526,207Z" transform="translate(-62.226 -132.923)"/>
    <path id="Path_428" data-name="Path 428" class="cls-1" d="M218.09,151.508v54.377H303.3V151.508Zm0,56.06v46.7c.487.1.967.2,1.451.279.649.126,1.3.24,1.965.338l.393.055c.259.043.523.079.786.11.656.094,1.313.165,1.965.228.307.031.625.055.936.083l.759.055h0c.413.031.822.055,1.23.071.252,0,.5.02.759.028s.393,0,.6,0h2.186c.338,0,.676,0,1.01-.031h.02a6.014,6.014,0,0,0,.7-.028,1.723,1.723,0,0,0,.2,0,4.738,4.738,0,0,0,.582-.024.821.821,0,0,1,.134,0c.436-.028.877-.063,1.321-.1s.865-.086,1.309-.134l.892-.11a78.282,78.282,0,0,0,10.791-2.3c7.952-2.217,15.724-5.319,23.672-7.587,10.268-2.929,21.62-4.371,31.542-.806V207.567ZM303.3,90.963V18.57a109.49,109.49,0,0,0-27.682,3.243c-21.577,5.421-40.953,17.178-57.526,32.195V90.959h4.289v1.679H218.09v57.188H303.3V92.637H239.923V90.955Zm109.47-24.455a35.274,35.274,0,0,1-15.449-4.489c-9.175-4.988-16.51-12.7-24.7-19.2A113.42,113.42,0,0,0,312.83,19.057V90.963H434.459l.3-.318Zm11.081-1.965,11.75,12.9V61.15a47.039,47.039,0,0,0-11.75,3.377ZM435.6,265.864v-58.3H410.543c-.063-.248-.134-.5-.212-.751.075.252.142.5.208.751H312.83v42.156c.928.688,1.844,1.415,2.752,2.146h0q1.47,1.2,2.921,2.433l.975.806c.468.393.943.786,1.415,1.16q1.419,1.144,2.858,2.264.719.566,1.447,1.112a197.364,197.364,0,0,0,24.231,15.846c1.895,1.057,3.809,2.076,5.735,3.07q1.922.991,3.872,1.942,2.925,1.427,5.9,2.752h0a216.439,216.439,0,0,0,57.392,16.715q6.6.971,13.251,1.533V265.856h.393ZM312.83,92.637v57.188H435.6V92.637Zm0,58.862v54.385H435.6V151.508Zm132.3-90.428v18.2L460.12,62.813Q452.667,61.583,445.127,61.071Zm0,90.436v54.377h119.4V151.508ZM564.11,270.176l.421-62.609h-119.4v94.568a215.147,215.147,0,0,0,23.075-.279h.134q5.5-.354,10.956-1.006h.083a201.459,201.459,0,0,0,56.3-15.04m51.889-125.371q-.68-1.572-1.4-3.145c-.888-1.965-1.824-3.876-2.791-5.782h-9.316v54.373h23.551c-.02-15.4-3.919-31.125-10.048-45.446Zm-13.5,47.128v53.854a77.062,77.062,0,0,0,16.274-21.951,75.55,75.55,0,0,0,7.26-31.908Zm0-71.905v14.152h8.444a153.733,153.733,0,0,0-8.444-14.152ZM493.085,71.744c-.621-.24-1.246-.48-1.871-.708a169.881,169.881,0,0,0-20.166-6.062L448.1,90.157h0l-.448.484.295.318h81.678a174.5,174.5,0,0,0-36.538-19.215Zm38.936,20.893H446.8l-1.675,1.529v55.659h119.4V122.859A170.014,170.014,0,0,0,532.022,92.637Z" transform="translate(-138.332 -18.56)"/>
    <path id="Path_429" data-name="Path 429" class="cls-1" d="M132.456,280.39v28.338H92.69c0-.165.024-.334.039-.5.035-.452.071-.9.11-1.352.039-.527.09-1.053.142-1.572s.1-1.148.165-1.718.114-1.148.177-1.718.126-1.14.2-1.706.134-1.14.212-1.706c.059-.468.118-.939.185-1.411.09-.664.185-1.329.283-1.989a1.89,1.89,0,0,1,.047-.3A137.162,137.162,0,0,1,97.171,280.4Z" transform="translate(-62.226 -177.463)"/>
    <path id="Path_430" data-name="Path 430" class="cls-1" d="M91.1,356.76h39.892v54.377H94.012c-.094.562-.189,1.12-.295,1.682h37.27v43.846a.561.561,0,0,1-.185-.071q-1.572-.625-3.145-1.325c-.224-.1-.444-.208-.672-.307q-1.572-.743-3.145-1.572c-.366-.193-.731-.393-1.089-.6a65.422,65.422,0,0,1-15.685-12.21c-.138-.13-.263-.271-.393-.393-.637-.692-1.262-1.392-1.867-2.107-.228-.263-.448-.531-.672-.786-.715-.873-1.407-1.777-2.076-2.685-.1-.138-.2-.271-.295-.393A58.066,58.066,0,0,1,95,421.995c-.055-.13-.106-.271-.157-.393-.542-1.376-1.034-2.771-1.458-4.194-.181-.594-.358-1.179-.507-1.8-.055-.177-.1-.358-.145-.535-2.209-8.707-2.465-17.756-2.465-26.762v-3.145q.047-5.515.13-11.019.031-1.415.059-2.842.083-3.613.236-7.241c.024-.668.055-1.341.09-2q.024-.578.059-1.156Q90.95,358.82,91.1,356.76Z" transform="translate(-60.758 -223.812)"/>
    <path id="Path_431" data-name="Path 431" class="cls-1" d="M232.127,183.669v49h-30v-49h4.277V167.08h17.556v16.589Z" transform="translate(-122.376 -101.399)"/>
    <rect id="Rectangle_6" data-name="Rectangle 6" class="cls-1" width="29.993" height="54.377" transform="translate(79.754 132.944)"/>
    <path id="Path_432" data-name="Path 432" class="cls-1" d="M218.09,499.37h29.993v45.206a77.69,77.69,0,0,1-10.791,2.292c-.3.043-.594.079-.892.11-.44.051-.877.1-1.313.137l-1.317.106h-.134l-.582.031h-.2c-.236,0-.468.027-.7.031h-.02c-.338,0-.672.023-1.01.031h-2.783a6.2,6.2,0,0,1-.763-.031q-.605-.024-1.226-.071h0l-.759-.055c-.314-.024-.629-.055-.939-.086q-.991-.087-1.965-.224l-.786-.11-.393-.055c-.656-.1-1.309-.208-1.965-.334-.487-.086-.967-.185-1.451-.287Z" transform="translate(-138.332 -310.363)"/>
    <rect id="Rectangle_7" data-name="Rectangle 7" class="cls-1" width="24.734" height="54.778" transform="translate(272.529 76.483)"/>
    <path id="Path_433" data-name="Path 433" class="cls-1" d="M565.918,338.19v54.381H443.15V369.115h65.392v13.837h32.639V338.19Z" transform="translate(-268.651 -205.246)"/>
    <path id="Path_434" data-name="Path 434" class="cls-1" d="M582.257,556.519a2.214,2.214,0,0,1-.393-.024v35.674q-6.647-.546-13.247-1.529A216.726,216.726,0,0,1,511.2,573.933q-7.913-3.569-15.5-7.779a198.085,198.085,0,0,1-24.227-15.846q-2.9-2.217-5.716-4.532c-1.3-1.077-2.591-2.178-3.9-3.243-.9-.735-1.82-1.462-2.752-2.154V498.211h97.708c-.071-.252-.134-.5-.2-.751.075.252.146.5.208.751h25.056v58.281C582,556.5,582.128,556.507,582.257,556.519Z" transform="translate(-284.601 -309.204)"/>
    <path id="Path_435" data-name="Path 435" class="cls-1" d="M910.627,171.976H894.51v-5.008h7.221V152.05q.939.346,1.871.708v14.21h7.021Z" transform="translate(-548.853 -99.573)"/>
    <path id="Path_436" data-name="Path 436" class="cls-1" d="M889.463,264.188H810.332a.05.05,0,0,0,.024,0H795.65V209.41h4.159V249.9h19V225.92h15.7V207h16.117v18.932h15.7v23.979h23.138Z" transform="translate(-488.854 -132.923)"/>
    <path id="Path_437" data-name="Path 437" class="cls-1" d="M795.65,356.76v54.377h93.817V356.76ZM914.92,475.141l.134-43.044H889.467V412.835H795.65v94.552a215.162,215.162,0,0,0,23.075-.279h.134q5.5-.354,10.956-1.006h.083a201.46,201.46,0,0,0,56.3-15.04" transform="translate(-488.854 -223.812)"/>
    <path id="Path_438" data-name="Path 438" class="cls-1" d="M1125.3,499.37h21.884a75.589,75.589,0,0,1-7.26,31.9,77.024,77.024,0,0,1-16.274,21.954V518.636h1.651Z" transform="translate(-687.918 -310.363)"/>
    <path id="Path_439" data-name="Path 439" class="cls-1" d="M1149.75,424.926h-21.9V379.48H1139.7C1145.83,393.8,1149.73,409.524,1149.75,424.926Z" transform="translate(-690.467 -237.601)"/>
    <rect id="Rectangle_8" data-name="Rectangle 8" class="cls-1" width="13.251" height="17.174" transform="translate(284.016 91.712)"/>
    <rect id="Rectangle_9" data-name="Rectangle 9" class="cls-1" width="13.251" height="3.955" transform="translate(284.016 127.311)"/>
    <rect id="Rectangle_10" data-name="Rectangle 10" class="cls-1" width="13.251" height="11.537" transform="translate(284.016 132.944)"/>
    <rect id="Rectangle_11" data-name="Rectangle 11" class="cls-1" width="13.251" height="17.174" transform="translate(284.016 162.909)"/>
    <rect id="Rectangle_12" data-name="Rectangle 12" class="cls-1" width="13.251" height="17.174" transform="translate(284.016 198.508)"/>
    <path id="Path_440" data-name="Path 440" class="cls-1" d="M750.951,627.281a1.912,1.912,0,0,1,.393.027,2.224,2.224,0,0,1-.393-.024v3.99H737.7V614.1h13.251Z" transform="translate(-453.684 -379.993)"/>
    <path id="Path_441" data-name="Path 441" class="cls-1" d="M750.951,704.65v13.263q-6.651-.547-13.251-1.529V704.65Z" transform="translate(-453.684 -434.948)"/>
    <rect id="Rectangle_13" data-name="Rectangle 13" class="cls-1" width="56.791" height="1.262" transform="translate(174.499 186.063)"/>
    <rect id="Rectangle_14" data-name="Rectangle 14" class="cls-1" width="56.791" height="4.835" transform="translate(174.499 189.003)"/>
    <rect id="Rectangle_15" data-name="Rectangle 15" class="cls-1" width="56.791" height="7.775" transform="translate(174.499 209.688)"/>
    <path id="Path_442" data-name="Path 442" class="cls-1" d="M520.139,612.08v7.776h-44.42q-2.9-2.209-5.716-4.536c-1.305-1.073-2.594-2.174-3.9-3.239Z" transform="translate(-288.85 -378.767)"/>
    <path id="Path_443" data-name="Path 443" class="cls-1" d="M572.393,672.17v7.8H567.7q-7.913-3.569-15.5-7.779Z" transform="translate(-341.104 -415.236)"/>
    <rect id="Rectangle_16" data-name="Rectangle 16" class="cls-1" width="11.18" height="11.18" transform="translate(329.87 138.215)"/>
    <rect id="Rectangle_17" data-name="Rectangle 17" class="cls-1" width="11.18" height="11.18" transform="translate(87.809 86.126)"/>
    <rect id="Rectangle_18" data-name="Rectangle 18" class="cls-1" width="11.18" height="11.18" transform="translate(87.809 112.094)"/>
    <rect id="Rectangle_19" data-name="Rectangle 19" class="cls-1" width="11.18" height="11.18" transform="translate(87.809 138.062)"/>
    <rect id="Rectangle_20" data-name="Rectangle 20" class="cls-1" width="11.18" height="11.18" transform="translate(87.809 164.026)"/>
    <rect id="Rectangle_21" data-name="Rectangle 21" class="cls-1" width="11.18" height="11.18" transform="translate(87.809 189.994)"/>
    <rect id="Rectangle_22" data-name="Rectangle 22" class="cls-1" width="11.18" height="11.18" transform="translate(87.809 215.962)"/>
    <rect id="Rectangle_23" data-name="Rectangle 23" class="cls-1" width="11.18" height="11.18" transform="translate(372.549 138.215)"/>
    <rect id="Rectangle_24" data-name="Rectangle 24" class="cls-1" width="11.18" height="11.18" transform="translate(329.87 165.791)"/>
    <rect id="Rectangle_25" data-name="Rectangle 25" class="cls-1" width="11.18" height="11.18" transform="translate(372.549 165.791)"/>
    <rect id="Rectangle_26" data-name="Rectangle 26" class="cls-1" width="11.18" height="11.18" transform="translate(329.87 193.363)"/>
    <rect id="Rectangle_27" data-name="Rectangle 27" class="cls-1" width="11.18" height="11.18" transform="translate(372.549 193.363)"/>
    <rect id="Rectangle_28" data-name="Rectangle 28" class="cls-1" width="11.18" height="11.18" transform="translate(329.87 220.938)"/>
    <rect id="Rectangle_29" data-name="Rectangle 29" class="cls-1" width="11.18" height="11.18" transform="translate(372.549 220.938)"/>
    <rect id="Rectangle_30" data-name="Rectangle 30" class="cls-1" width="11.18" height="11.18" transform="translate(329.87 248.514)"/>
    <rect id="Rectangle_31" data-name="Rectangle 31" class="cls-1" width="11.18" height="11.18" transform="translate(372.549 248.514)"/>
    <path id="Path_444" data-name="Path 444" class="cls-1" d="M838.4,709.539V702.33h11.176v6.183Z" transform="translate(-508.53 -426.244)"/>
    <path id="Path_445" data-name="Path 445" class="cls-1" d="M96.53,316.91v6.4h38.256v-6.4Zm3.809,5.995H97.194v-5.59h3.145Zm3.809,0H101v-5.59h3.145Zm3.8,0H104.8v-5.59h3.145Zm3.809,0h-3.145v-5.59h3.145Zm3.805,0h-3.145v-5.59h3.145Zm3.809,0h-3.145v-5.59h3.145Zm3.809,0h-3.145v-5.59h3.145Zm3.805,0h-3.145v-5.59h3.145Zm3.805,0h-3.145v-5.59h3.145Zm3.809,0h-3.145v-5.59H134.6Z" transform="translate(-64.557 -199.627)"/>
    <path id="Path_446" data-name="Path 446" class="cls-1" d="M96.53,364.27v6.4h38.256v-6.4Zm3.809,5.995H97.194v-5.59h3.145Zm3.809,0H101v-5.59h3.145Zm3.8,0H104.8v-5.59h3.145Zm3.809,0h-3.145v-5.59h3.145Zm3.805,0h-3.145v-5.59h3.145Zm3.809,0h-3.145v-5.59h3.145Zm3.809,0h-3.145v-5.59h3.145Zm3.805,0h-3.145v-5.59h3.145Zm3.805,0h-3.145v-5.59h3.145Zm3.809,0h-3.145v-5.59H134.6Z" transform="translate(-64.557 -228.37)"/>
    <path id="Path_447" data-name="Path 447" class="cls-1" d="M96.53,411.64v6.392h38.256V411.64Zm3.809,5.987H97.194v-5.59h3.145Zm3.809,0H101v-5.59h3.145Zm3.8,0H104.8v-5.59h3.145Zm3.809,0h-3.145v-5.59h3.145Zm3.805,0h-3.145v-5.59h3.145Zm3.809,0h-3.145v-5.59h3.145Zm3.809,0h-3.145v-5.59h3.145Zm3.805,0h-3.145v-5.59h3.145Zm3.805,0h-3.145v-5.59h3.145Zm3.809,0h-3.145v-5.59H134.6Z" transform="translate(-64.557 -257.119)"/>
    <path id="Path_448" data-name="Path 448" class="cls-1" d="M96.53,459v6.392h38.256V459Zm3.809,5.991H97.194v-5.6h3.145Zm3.809,0H101v-5.6h3.145Zm3.8,0H104.8v-5.6h3.145Zm3.809,0h-3.145v-5.6h3.145Zm3.805,0h-3.145v-5.6h3.145Zm3.809,0h-3.145v-5.6h3.145Zm3.809,0h-3.145v-5.6h3.145Zm3.805,0h-3.145v-5.6h3.145Zm3.805,0h-3.145v-5.6h3.145Zm3.809,0h-3.145v-5.6H134.6Z" transform="translate(-64.557 -285.862)"/>
    <path id="Path_449" data-name="Path 449" class="cls-1" d="M97,506.34c.149.605.326,1.2.507,1.8v-1.392h3.145v5.586H98.965c.047.134.1.271.153.393h35.968V506.34Zm7.469,5.991h-3.145v-5.586h3.145Zm3.8,0h-3.145v-5.586h3.145Zm3.809,0h-3.145v-5.586h3.145Zm3.805,0H112.74v-5.586h3.145Zm3.809,0h-3.145v-5.586h3.145Zm3.809,0h-3.145v-5.586H123.5Zm3.805,0h-3.145v-5.586h3.145Zm3.805,0h-3.145v-5.586h3.145Zm3.809,0h-3.145v-5.586h3.145Z" transform="translate(-64.842 -314.593)"/>
    <path id="Path_450" data-name="Path 450" class="cls-1" d="M119.54,553.7c.1.126.2.267.295.393h2.079v2.685l.672.786v-3.487h3.145v5.637h-1.293c.126.13.248.267.393.393h23.912V553.7Zm10.008,6.014H126.4V554.1h3.145Zm3.809,0h-3.145V554.1h3.145Zm3.809,0h-3.145V554.1h3.145Zm3.805,0h-3.145V554.1h3.145Zm3.805,0h-3.145V554.1h3.145Zm3.809,0h-3.145V554.1h3.145Z" transform="translate(-78.522 -343.336)"/>
    <path id="Path_451" data-name="Path 451" class="cls-1" d="M172.93,601.06c.362.2.727.393,1.093.594v-.2h3.145v1.773c.228.1.444.2.668.307v-2.079h3.145v3.4a1.281,1.281,0,0,0,.185.067V601.06Z" transform="translate(-110.924 -372.079)"/>
    <path id="Path_452" data-name="Path 452" class="cls-1" d="M466.431,261.59ZM442.216,377.613Zm-25.264-59.031c.075.252.142.5.208.751h0C417.1,319.085,417.03,318.833,416.952,318.582Zm49.479-56.991ZM229,202.728V204.4h17.56V202.72ZM442.22,377.613Zm-25.268-59.031c.075.252.142.5.208.751h0C417.1,319.085,417.03,318.833,416.952,318.582Zm49.479-56.991ZM442.216,377.613Zm-25.264-59.031c.075.252.142.5.208.751h0C417.1,319.085,417.03,318.833,416.952,318.582Z" transform="translate(-144.953 -130.325)"/>
    <ellipse id="Ellipse_67" data-name="Ellipse 67" class="cls-1" cx="38.303" cy="6.152" rx="38.303" ry="6.152" transform="translate(307.696 326.89)"/>
    <ellipse id="Ellipse_68" data-name="Ellipse 68" class="cls-1" cx="38.303" cy="6.152" rx="38.303" ry="6.152" transform="translate(134.945 320.738)"/>
    <path id="Path_453" data-name="Path 453" class="cls-2" d="M462.651,339.274a.207.207,0,0,0-.059-.1c-.586-.578-8.055-11.14-8.055-11.14s-.393-1.179-1.03-2.712a2.7,2.7,0,0,0,.452-.884,3.03,3.03,0,0,0,.075-.413c0-.043.031-.079.043-.122a2.984,2.984,0,0,0-.039-1.62,2.8,2.8,0,0,1-.161.393,6.575,6.575,0,0,0-.59-1.313c-.991-1.706-2.406-3.145-3.448-4.808a13.007,13.007,0,0,1-1.773-8.632v.464a13.458,13.458,0,0,1,.236-1.769,12.269,12.269,0,0,1,.657-1.942c.935-2.142,2.449-4.01,3.369-6.16a11.673,11.673,0,0,0,.7-2.252,12.616,12.616,0,0,0,.35-3.951,6.284,6.284,0,0,1-.1.94,12.8,12.8,0,0,0-3.613-8.518c-3.212-3.227-7.823-4.481-12.233-5.142a11.207,11.207,0,0,1-5.15-1.965,8.952,8.952,0,0,0-5.865-1.12,9.674,9.674,0,0,0-5.971,2.952c-2.1,2.3-3,5.566-5.448,7.508-1.482,1.179-3.361,1.73-5.087,2.532s-3.357,1.965-3.911,3.687v.063l-.024.063c-.574,2.036.535,4.108,1.112,6.14a24.879,24.879,0,0,1,.672,6.5c.043,2.657.083,5.319.039,7.98-.02,1.046-.055,2.1-.134,3.145a16.482,16.482,0,0,0-2.7,1.085,53.482,53.482,0,0,0-4.175,4.131L394.35,346.9l.086.1-.086.334.326-.075a33.168,33.168,0,0,0,6.577,5.527l.275,4.827a8.581,8.581,0,0,0,4.784,6.844c.1,1.679.421,8.495-1.053,11.2a12.579,12.579,0,0,0-1.392,6.4s.515,4.1-.071,6.25a10.221,10.221,0,0,0-.075,4.387h0v1.293c0,4.359.051,18.33,0,19.91-.075,1.867,0,29.482,0,29.482s-.366,13.8-1.537,17.54-.877,16.117-.877,16.117-.735,14.745,1.863,17.654c0,.13-.024.263-.028.393v.185c-.031,1.12.185,2.311,1.148,2.677a16.449,16.449,0,0,1,5.055,3.668c.491.649,3.349,2.264,7.076,1.832a53.257,53.257,0,0,1,7.033-.322h0s1.47-.267.995-2.1h0a16.369,16.369,0,0,0-2.272-4.045c.149.039.295.071.432.1l.141.028h.11a1.5,1.5,0,0,0,.181,0h.079a1.353,1.353,0,0,0,.22,0h0c.987-.094,4.666,1.62,5.323,2.752s2.972,1.993,4.717,2.209a33.514,33.514,0,0,0,5.853-.37,21.561,21.561,0,0,0,3.278-.6c.519-.2.629-.826.48-1.533h0a3.99,3.99,0,0,0-1.36-2.3,11.038,11.038,0,0,1-2.1-2.618l-.165-.263c1.1-1.046,3.078-4.466,3.679-5.173.731-.861-1.179-32.344-1.179-32.344V441.09l2.929-14.938,2.048-7.905,1.757-11.934s3.074-13.939,2.127-15.307h0c0-.028-.786-14.38-1.612-17.827-.358-1.537-.267-5-.055-8.361a1.651,1.651,0,0,0,.393-1.722,3.577,3.577,0,0,0-.228-.586v-.181a27.069,27.069,0,0,1,5.295-1.8c2.929-.574,2.2-2.083,2.2-2.083s.66-1.293,1.1-2.083.075-7.764,0-8.338c-.027-.232-.208-1.513-.417-2.968.94-.668,2.162-1.5,3.495-2.284C463.429,341.271,462.859,339.686,462.651,339.274Zm-38.209,99.662s-2.2,5.606-1.317,7.04-.145,6.761-.145,6.761l-.735,7.905s-2.048,14.663-1.317,18.11c.574,2.7.786,10.783.853,14.152h0a.994.994,0,0,0-.145.071l-.1.051c.338-1.325.2-4.006-1.482-9.4l-.142-22.277s-.259-25.732,1.773-28.61,2.752-7.764,2.752-7.764-.44,7.048-.727,8.915A14.7,14.7,0,0,0,424.442,438.936Zm-4.092,55.372c-.02.047-.043.094-.059.138l-.11-.142a1.154,1.154,0,0,0,.169,0Z" transform="translate(-245.304 -175.055)"/>
    <path id="Path_454" data-name="Path 454" class="cls-3" d="M483.334,839.777a39.027,39.027,0,0,1-9.018.971c-1.722-.208-4-1.081-4.65-2.221s-4.285-2.862-5.26-2.752a3.534,3.534,0,0,1-1.179-.165,14.508,14.508,0,0,1-1.966-.755,3.648,3.648,0,0,1,.043-1.494,2.385,2.385,0,0,1,.086-.291,2.6,2.6,0,0,1,1.321-1.47l.142-.067a4,4,0,0,1,.849-.259c3.09-.594,15.838.6,15.838.6s.358.641.849,1.435a10.973,10.973,0,0,0,2.076,2.634,4.03,4.03,0,0,1,1.34,2.311C483.955,838.947,483.845,839.584,483.334,839.777Z" transform="translate(-285.879 -511.696)"/>
    <path id="Path_455" data-name="Path 455" class="cls-4" d="M483.342,841.477a39,39,0,0,1-9.014.971c-1.722-.208-4-1.085-4.654-2.221s-4.281-2.862-5.256-2.752a9.106,9.106,0,0,1-3.145-.92,3.259,3.259,0,0,1,.645-2.646l1.965,1.4s5.26,1.631,6.235,3.145,2.752,2.359,5.319,2.512a49.761,49.761,0,0,0,8.389-.995C483.963,840.648,483.857,841.284,483.342,841.477Z" transform="translate(-285.886 -513.396)"/>
    <path id="Path_456" data-name="Path 456" class="cls-3" d="M438.64,842a52.337,52.337,0,0,0-6.942.326c-3.691.432-6.51-1.179-7-1.844a16.4,16.4,0,0,0-4.988-3.7c-.955-.37-1.179-1.572-1.136-2.7v-.185a11.006,11.006,0,0,1,.314-2.111l15.3-.326,1.325,1.8.2.275.806,1.1s.366.479.845,1.179a16.778,16.778,0,0,1,2.245,4.073h0C440.09,841.734,438.64,842,438.64,842Z" transform="translate(-260.002 -511.915)"/>
    <path id="Path_457" data-name="Path 457" class="cls-4" d="M438.64,846.061a52.316,52.316,0,0,0-6.942.326c-3.687.432-6.51-1.179-7-1.844a15.942,15.942,0,0,0-4.992-3.687c-.955-.37-1.179-1.572-1.136-2.7,1.093.255,3.388.908,4.289,2.044,1.179,1.517,3.29,4.069,6.29,4.23,2.421.13,8.318-.3,10.48-.476C440.094,845.794,438.64,846.061,438.64,846.061Z" transform="translate(-260.002 -515.975)"/>
    <path id="Path_458" data-name="Path 458" class="cls-4" d="M436.8,831.792c-.177,1.313-.723,1.667-1.116,1.745a.76.76,0,0,1-.291,0,.971.971,0,0,1-.153-.024s-13.735,3.035-16.51.578a1.913,1.913,0,0,1-.2-.2,11.009,11.009,0,0,1,.314-2.111l15.3-.326,1.325,1.8a2.6,2.6,0,0,1,1.321-1.47Z" transform="translate(-259.979 -511.903)"/>
    <path id="Path_459" data-name="Path 459" class="cls-4" d="M482.908,833.236c-.307.338-.562.531-.723.464-.723-.291-6.651-1.3-8.534-.432s-8.255.142-8.255.142,0-.755-.035-1.966a4,4,0,0,1,.849-.259c3.09-.594,15.838.6,15.838.6S482.42,832.442,482.908,833.236Z" transform="translate(-288.401 -511.641)"/>
    <path id="Path_460" data-name="Path 460" class="cls-5" d="M460.546,579.18l-1.738,12.005-2.021,7.956-2.893,15.04V630.1s1.879,31.676,1.156,32.541-3.471,5.79-4.194,5.5-6.651-1.3-8.534-.436-8.255.145-8.255.145-.145-12.292-.869-15.763,1.3-18.224,1.3-18.224l.723-7.953s1.014-5.354.145-6.8,1.3-7.076,1.3-7.076a14.808,14.808,0,0,1-.719-5.067c.291-1.879.719-8.967.719-8.967s-.719,4.922-2.728,7.811-1.753,28.783-1.753,28.783l.141,22.407c3.62,11.864,0,10.7,0,10.7s-13.735,3.039-16.51.578-1.981-17.949-1.981-17.949-.287-12.438.869-16.2,1.521-17.646,1.521-17.646-.075-27.772,0-29.647c.055-1.572,0-15.649,0-20.048v-1.3l1.659-4.12,19.655-2.461h9.4s14.151,3.326,15.614,4.76a.325.325,0,0,1,.079.086C463.584,565.154,460.546,579.18,460.546,579.18Z" transform="translate(-257.068 -346.504)"/>
    <path id="Path_461" data-name="Path 461" class="cls-4" d="M472.11,770.88s4.324,10.413,6.364,11.136S472.11,770.88,472.11,770.88Z" transform="translate(-292.497 -475.143)"/>
    <path id="Path_462" data-name="Path 462" class="cls-4" d="M476.18,809.88s14.6.723,14.454,2.315S476.18,809.88,476.18,809.88Z" transform="translate(-294.967 -498.812)"/>
    <path id="Path_463" data-name="Path 463" class="cls-4" d="M426.49,799.29c.578.546,11.136,1.572,10.268,2.571s-9.4,2.94-9.4,2.94Z" transform="translate(-264.81 -492.385)"/>
    <path id="Path_464" data-name="Path 464" class="cls-4" d="M422.08,753.59c0,.432,2.17,13.884,2.752,14.462s5.35,1.156,5.35,1.156Z" transform="translate(-262.134 -464.65)"/>
    <path id="Path_465" data-name="Path 465" class="cls-6" d="M438.752,281.121c-2.072,2.315-2.968,5.6-5.382,7.555a23.867,23.867,0,0,1-5.028,2.543c-1.706.8-3.4,2.024-3.9,3.841-.566,2.044.527,4.131,1.1,6.176a25.568,25.568,0,0,1,.664,6.537c.039,2.677.083,5.354.035,8.031-.071,4.171-.417,8.534-2.63,12.068,7.992,2.543,16.49,2.889,24.871,3.216a25.094,25.094,0,0,0,4.831-.122,41.468,41.468,0,0,0,4.116-1.042,31.558,31.558,0,0,1,8.2-1.05,13.767,13.767,0,0,0,3.6-.24,3.553,3.553,0,0,0,2.6-2.284,4.243,4.243,0,0,0-.664-3.1c-.975-1.714-2.359-3.145-3.4-4.835a13.287,13.287,0,0,1-.853-11.946c.928-2.158,2.421-4.037,3.333-6.2a13.074,13.074,0,0,0-2.634-13.868c-3.172-3.247-7.724-4.5-12.08-5.173a10.972,10.972,0,0,1-5.087-1.966,8.706,8.706,0,0,0-5.794-1.124,9.458,9.458,0,0,0-5.892,2.98Z" transform="translate(-263.062 -176.048)"/>
    <g id="Group_20" data-name="Group 20" class="cls-7" transform="translate(160.705 117.99)">
      <path id="Path_466" data-name="Path 466" d="M532.464,328.876a13.077,13.077,0,0,0-1,6,12.851,12.851,0,0,1,1-4.261c.924-2.158,2.418-4.037,3.33-6.2a12.543,12.543,0,0,0,.916-5.708,12.226,12.226,0,0,1-.916,3.97C534.881,324.842,533.388,326.717,532.464,328.876Z" transform="translate(-489.203 -318.71)"/>
      <path id="Path_467" data-name="Path 467" d="M427.551,333.239c.024,1.541.047,3.086.051,4.627q0-3.184-.051-6.36a25.51,25.51,0,0,0-.664-6.541,32.394,32.394,0,0,1-1.179-4.065c-.35,1.926.645,3.88,1.179,5.8A25.393,25.393,0,0,1,427.551,333.239Z" transform="translate(-424.996 -320.039)"/>
      <path id="Path_468" data-name="Path 468" d="M469.605,397.613a13.294,13.294,0,0,1-3.6.24,31.531,31.531,0,0,0-8.2,1.03,41.753,41.753,0,0,1-4.116,1.038,24.833,24.833,0,0,1-4.835.126c-8.1-.318-16.31-.66-24.065-2.976a13.343,13.343,0,0,1-.786,1.494c7.992,2.539,16.49,2.889,24.867,3.216a24.835,24.835,0,0,0,4.835-.126,40.664,40.664,0,0,0,4.1-1.034,31.534,31.534,0,0,1,8.18-1.042,13.572,13.572,0,0,0,3.6-.244,3.556,3.556,0,0,0,2.6-2.28,3.121,3.121,0,0,0-.039-1.635A3.67,3.67,0,0,1,469.605,397.613Z" transform="translate(-424.01 -365.265)"/>
    </g>
    <path id="Path_469" data-name="Path 469" class="cls-8" d="M468.842,353.44c-.291.653-1.517,6.29-1.808,6.867s-1.879,9.827-2.024,10.346-10.468-2.17-10.468-2.17l-6.215-5.209-6.388-6.356s-.189-5.735,4.517-7.575a7.185,7.185,0,0,1,.983-.307c5.708-1.372,5.134-18.727,5.134-18.727l11.714,5.059s-2.17,10.126-2.1,12.08c.02.656.535,1.065,1.207,1.313a9.541,9.541,0,0,0,3.2.346S469.133,352.791,468.842,353.44Z" transform="translate(-274.185 -207.76)"/>
    <path id="Path_470" data-name="Path 470" class="cls-5" d="M539.836,436.195l1.663.436s1.23,1.871-1.663,3.613a50.118,50.118,0,0,0-5.279,3.691l-8.55,2.6-1.647-5.169,7.956-6.038Z" transform="translate(-324.208 -271.497)"/>
    <path id="Path_471" data-name="Path 471" class="cls-4" d="M539.836,436.195l1.663.436s1.23,1.871-1.663,3.613a50.118,50.118,0,0,0-5.279,3.691l-8.55,2.6-1.647-5.169,7.956-6.038Z" transform="translate(-324.208 -271.497)"/>
    <path id="Path_472" data-name="Path 472" class="cls-5" d="M399.866,448.779l-3.326,3.255s6,6.942,10.614,7.375,7.591-5.279,7.591-5.279l-3.994-6.29Z" transform="translate(-246.634 -279.089)"/>
    <path id="Path_473" data-name="Path 473" class="cls-4" d="M399.866,448.779l-3.326,3.255s6,6.942,10.614,7.375,7.591-5.279,7.591-5.279l-3.994-6.29Z" transform="translate(-246.634 -279.089)"/>
    <circle id="Ellipse_69" data-name="Ellipse 69" class="cls-4" cx="11.569" cy="11.569" r="11.569" transform="translate(173.253 110.753)"/>
    <circle id="Ellipse_70" data-name="Ellipse 70" class="cls-8" cx="11.569" cy="11.569" r="11.569" transform="translate(173.253 109.884)"/>
    <path id="Path_474" data-name="Path 474" class="cls-4" d="M466.491,565.1a37.339,37.339,0,0,0-7.74,1.734c-4.324,1.439-38.209.024-38.681,0v-1.3l1.659-4.12,19.655-2.461h9.4s14.151,3.326,15.614,4.76C466.459,564.575,466.491,565.1,466.491,565.1Z" transform="translate(-260.914 -346.522)"/>
    <path id="Path_475" data-name="Path 475" class="cls-4" d="M468.842,381.928c-.291.653-1.517,6.29-1.808,6.867s-1.879,9.827-2.024,10.346-10.468-2.17-10.468-2.17l-6.215-5.209-6.388-6.356s-.189-5.735,4.517-7.575l11.683,13.432,5.26-14.014a9.54,9.54,0,0,0,3.2.346S469.133,381.279,468.842,381.928Z" transform="translate(-274.185 -236.248)"/>
    <path id="Path_476" data-name="Path 476" class="cls-5" d="M440.388,390.768,428.43,377.009a5.012,5.012,0,0,0-4.745-.35c-2.677,1.16-6,2.1-6.871,2.677a53.6,53.6,0,0,0-4.124,4.155l9.694,25.359-4.269,16.7s.653,8.534-1.01,11.644a12.779,12.779,0,0,0-1.376,6.435s.507,4.124-.071,6.29a10.475,10.475,0,0,0-.075,4.411s34.353,1.447,38.689,0a37.019,37.019,0,0,1,7.74-1.734s-.786-14.466-1.572-17.937.653-16.7.653-16.7l-.94-14.175,5.637-14.545s-3.054-9.324-6.238-10.264a61.818,61.818,0,0,1-7.013-2.024,24.589,24.589,0,0,0-4.847-1.23l-1.9.637Z" transform="translate(-256.435 -235.319)"/>
    <rect id="Rectangle_32" data-name="Rectangle 32" class="cls-4" width="27.533" height="42.132" rx="2.94" transform="translate(174.321 166.196) rotate(3.89)"/>
    <rect id="Rectangle_33" data-name="Rectangle 33" class="cls-6" width="27.533" height="42.132" rx="2.94" transform="translate(175.188 165.333) rotate(3.89)"/>
    <rect id="Rectangle_34" data-name="Rectangle 34" class="cls-3" width="23.987" height="36.251" transform="translate(176.742 168.61) rotate(3.89)"/>
    <rect id="Rectangle_35" data-name="Rectangle 35" class="cls-4" width="19.597" height="5.462" transform="translate(178.978 178.1) rotate(4.004)"/>
    <rect id="Rectangle_36" data-name="Rectangle 36" class="cls-4" width="3.109" height="2.846" transform="translate(194.718 200.909) rotate(3.89)"/>
    <rect id="Rectangle_37" data-name="Rectangle 37" class="cls-4" width="15.917" height="2.846" transform="translate(178.881 193.188) rotate(3.89)"/>
    <rect id="Rectangle_38" data-name="Rectangle 38" class="cls-6" width="16.573" height="4.375" transform="translate(181.177 167.76) rotate(3.89)"/>
    <rect id="Rectangle_39" data-name="Rectangle 39" class="cls-4" width="16.573" height="4.375" transform="translate(181.177 167.76) rotate(3.89)"/>
    <path id="Path_477" data-name="Path 477" class="cls-4" d="M477.9,572.56s-.145,21.408-5.786,33.7c0,0,6.8-16.2,6.8-16.848s3.758-7.449,2.752-9.474S477.9,572.56,477.9,572.56Z" transform="translate(-292.497 -354.782)"/>
    <path id="Path_478" data-name="Path 478" class="cls-4" d="M466.13,301.375a8.047,8.047,0,0,1,1.309-5.389,6.64,6.64,0,0,0,5.134,7,.869.869,0,0,1-.248-.951,29.117,29.117,0,0,0,2.335,2.795,3.1,3.1,0,0,0,3.353.712c1.458-.786,1.474-2.858,1.1-4.47a20.992,20.992,0,0,0-4.831-9.226,6.392,6.392,0,0,0-5.071-2.579,12.474,12.474,0,0,0-6.553,1.026,17.412,17.412,0,0,0-3.145,2.2l-5.5,4.489a5.224,5.224,0,0,0-1.337,1.407,3.853,3.853,0,0,0-.417,1.474,7.944,7.944,0,0,0,3.7,7.5,5.861,5.861,0,0,1,3.51-5.5,1.525,1.525,0,0,1,.546,1.136l1.16-2.068a2.276,2.276,0,0,1,.786-.932,2.053,2.053,0,0,1,2.217.625,3.957,3.957,0,0,0,2.021,1.333l.031-3.078" transform="translate(-280.425 -182.815)"/>
    <path id="Path_479" data-name="Path 479" class="cls-6" d="M466.155,300.274a8.051,8.051,0,0,1,1.309-5.393,6.643,6.643,0,0,0,5.138,7,.861.861,0,0,1-.248-.947,29.6,29.6,0,0,0,2.335,2.795,3.087,3.087,0,0,0,3.353.708c1.458-.786,1.474-2.858,1.1-4.466a20.992,20.992,0,0,0-4.831-9.226,7.732,7.732,0,0,0-2.7-2.1,7.863,7.863,0,0,0-2.359-.48,12.473,12.473,0,0,0-6.553,1.022,17.636,17.636,0,0,0-3.145,2.2l-5.5,4.489a5.17,5.17,0,0,0-1.337,1.407,3.832,3.832,0,0,0-.417,1.474,7.94,7.94,0,0,0,3.7,7.492,5.869,5.869,0,0,1,3.51-5.5,1.537,1.537,0,0,1,.546,1.136l1.156-2.06a2.252,2.252,0,0,1,.786-.932,2.053,2.053,0,0,1,2.217.625,3.983,3.983,0,0,0,2.021,1.333l.031-3.082" transform="translate(-280.449 -182.146)"/>
    <path id="Path_480" data-name="Path 480" class="cls-8" d="M447.633,470.169c-1.01-.511-17.717,2.1-17.717,2.1a95.61,95.61,0,0,0-9.4-1.879c-6.651-1.093-7.076-7.595-7.076-7.595l-.727-13.015,2.245-1.966,9.615,6.29a31.056,31.056,0,0,1,0,3.754,5.3,5.3,0,0,0-.322,1.179.393.393,0,0,0,.322.354c.653.165,9.544,1.6,9.544,1.6s20.61-1.411,25.748,5.531a5.219,5.219,0,0,1,.908,1.714C462.044,472.98,448.549,470.621,447.633,470.169Z" transform="translate(-256.447 -279.071)"/>
    <path id="Path_481" data-name="Path 481" class="cls-4" d="M478.123,485.632c-.786.35-1.274.6-1.274.6s-7.375-.216-11.518-1.718a27.055,27.055,0,0,0-9.179-1.234s-17.265-2.972-14.588-6.852a.393.393,0,0,0,.322.354c.653.165,9.544,1.6,9.544,1.6s20.61-1.411,25.748,5.531A5.22,5.22,0,0,1,478.123,485.632Z" transform="translate(-273.788 -296.44)"/>
    <path id="Path_482" data-name="Path 482" class="cls-8" d="M485.313,441.58s1.014,7.158,1.085,7.74.436,7.591,0,8.389-1.085,2.1-1.085,2.1.723,1.517-2.17,2.1a29.7,29.7,0,0,0-6.29,2.311s-7.378-.216-11.5-1.734a26.534,26.534,0,0,0-9.183-1.23s-21.915-3.762-12.512-8.353a14.47,14.47,0,0,1,16.054,1.627l10.484-.649s3.907-2.39,4.992-2.17a4.014,4.014,0,0,0,2.241-.362l.075-7.595Z" transform="translate(-273.808 -275.29)"/>
    <path id="Path_483" data-name="Path 483" class="cls-4" d="M404.94,396.71l-2.1-.11-6.36,24.765s6.867-1.737,9.827,0,8.389,2.1,8.389,2.1l-2.024-19.741Z" transform="translate(-246.597 -247.991)"/>
    <path id="Path_484" data-name="Path 484" class="cls-5" d="M404.94,395.6l-2.1-.11-6.36,24.765s6.867-1.737,9.827,0,8.389,2.1,8.389,2.1l-2.024-19.741Z" transform="translate(-246.597 -247.318)"/>
    <path id="Path_485" data-name="Path 485" class="cls-4" d="M533.21,409.57l2.889.653s7.378,10.614,7.956,11.207-2.752,2.752-4.124,2.752-8.1.786-10.052,2.6-1.14-7.323-1.14-7.532,2.425-5.975,2.425-5.975Z" transform="translate(-326.764 -255.863)"/>
    <path id="Path_486" data-name="Path 486" class="cls-5" d="M533.21,408.47l2.889.649s7.378,10.633,7.956,11.211-2.752,2.752-4.124,2.752-8.1.786-10.052,2.6-1.14-7.323-1.14-7.532,2.441-5.995,2.441-5.995Z" transform="translate(-326.764 -255.195)"/>
    <g id="Group_21" data-name="Group 21" class="cls-7" transform="translate(171.808 111.866)">
      <path id="Path_487" data-name="Path 487" d="M467.443,304.034a5.8,5.8,0,0,1,.02-.9,8.046,8.046,0,0,0-1.211,2.968v1.1c0,.637,0,1.278-.02,1.914h-.055v.295a1.568,1.568,0,0,0-.02-.3,4.181,4.181,0,0,1-1.934-1.313c-.586-.527-1.5-1.03-2.217-.625a2.253,2.253,0,0,0-.786.932l-1.168,2.06a1.521,1.521,0,0,0-.546-1.132,5.861,5.861,0,0,0-3.51,5.5,7.988,7.988,0,0,1-3.73-6.262,7.948,7.948,0,0,0,3.73,7.127,5.869,5.869,0,0,1,3.51-5.5,1.537,1.537,0,0,1,.546,1.136l1.156-2.06a2.252,2.252,0,0,1,.786-.932,2.053,2.053,0,0,1,2.217.625,3.982,3.982,0,0,0,2.021,1.333q0-1.509.031-3.011A8.007,8.007,0,0,1,467.443,304.034Z" transform="translate(-452.256 -303.13)"/>
      <path id="Path_488" data-name="Path 488" d="M487.5,312.611c.02-.267.051-.535.09-.786l.043-1.085A7.954,7.954,0,0,0,487.5,312.611Z" transform="translate(-473.638 -307.749)"/>
      <path id="Path_489" data-name="Path 489" d="M508.988,322.023a3.1,3.1,0,0,1-3.353-.708,29.093,29.093,0,0,1-2.335-2.795.869.869,0,0,0,.248.951.925.925,0,0,1-.228-.059,25.964,25.964,0,0,0,2.315,2.752,3.121,3.121,0,0,0,3.353.708,3.212,3.212,0,0,0,1.285-3.227A2.729,2.729,0,0,1,508.988,322.023Z" transform="translate(-483.204 -312.47)"/>
      <path id="Path_490" data-name="Path 490" d="M495.785,311.751a6.683,6.683,0,0,1-4.9-5.841,6.64,6.64,0,0,0,5.15,6.773A.865.865,0,0,1,495.785,311.751Z" transform="translate(-475.692 -304.817)"/>
    </g>
    <path id="Path_491" data-name="Path 491" class="cls-9" d="M854.273,350.657s-1.549-.216-1.549-2.469a35.418,35.418,0,0,0-1.109-6.47h0s-.959-7.339-2.284-8.5-3.027-8-3.027-8-.291-3.707-.884-4.5a38.274,38.274,0,0,1-2.579-5.539c-1.183-2.787-6.1-4.7-6.1-4.7s-8.919-5.173-11.447-6.86h0a3.9,3.9,0,0,1-.645-.487c-.44-.574-2.359-.586-2.359-.586a38.834,38.834,0,0,1-.456-4.041v-.425a13.6,13.6,0,0,0,5.979-7.4c.047-.149.086-.3.13-.456a1.278,1.278,0,0,0,.786-.692,13.889,13.889,0,0,1,.515-1.572,5.829,5.829,0,0,1,1.454-1.274,5.512,5.512,0,0,0,1.513-4.477c-.039-1.321-.252-2.649-.169-3.958a1.559,1.559,0,0,1,.024-.33c.024-.193.051-.393.086-.582.193-.975.613-1.895.849-2.862a3.682,3.682,0,0,0-.291-2.889c-.806-1.223-2.484-1.466-3.958-1.572-1.671-.142-3.145.039-4.234-1.348a14.824,14.824,0,0,0-1.682-2.028c-.22-.2-2.359-1.513-2.359-1.6a9.557,9.557,0,0,0-6.683-.515c-1.112.322-2.154.849-3.282,1.112-2.421.574-5.212-.047-7.272,1.34a8.583,8.583,0,0,0-2.48,3.255q-.786,1.5-1.6,3.007a19.352,19.352,0,0,0-2.119,5.146,8.718,8.718,0,0,0-.146,1.207h0v.625a2.148,2.148,0,0,0,.024.393,2.246,2.246,0,0,0,.027.244c.028.083.035.267.059.393s.071.35.118.519a.8.8,0,0,0,.071.22c.024.075.086.263.138.393s.055.138.086.2a3.669,3.669,0,0,0,.2.393c.031.051.055.1.086.153a4.447,4.447,0,0,0,.362.527c.837,1.05,2.08,1.718,3,2.7v.44a13.456,13.456,0,0,0,6.164,10.967c0,.149.02.3.027.456a22.445,22.445,0,0,1-.043,3.5,1.659,1.659,0,0,0-1.305-.582,1.871,1.871,0,0,0-.5.043l-.035-.027h0v.035c-.865.212-1.93,1.112-2.948,3.671,0,0-3.1,3.491-5.456,3.345s-8.33,3.636-8.33,3.636-5.826,3.778-7.076,7.63a53.357,53.357,0,0,1-2.512,6.4L771.825,340.7h0L770.5,352.5a54.529,54.529,0,0,1,.59,6.034c-.145.8,3.023,8,3.023,8s10.468,18.389,14.745,19.333l.307-.212a2.678,2.678,0,0,0,.578.212l.88-.617a9.2,9.2,0,0,1-.071,2.072c-.586,1.82.224,13.668,1.254,15.991s.664,32.788.664,32.788l-.145,2.685a1.139,1.139,0,0,0,.035.236l-.035.637.106.055a7.6,7.6,0,0,1-.106,2.563,28.42,28.42,0,0,0-.519,4.509s-2.948,18.822-1.549,22.6,2.583,7.925,2.583,7.925,1.474,4.717.071,5.5-5.378,2.182-4.568,4.143c.747,1.816,3.581,6.683,4,7.394l-.035.393L791.731,501a7.863,7.863,0,0,0,.664,2.39,4.11,4.11,0,0,0,4.2,2.626c.393-.027.845-.071,1.289-.13a55.857,55.857,0,0,0,9.548-2.488,3.765,3.765,0,0,1-.743-.617h0a2.158,2.158,0,0,1-.656-1.572c.063-1.144-2.072-6.573-2.606-7.913l-.122-.3s4.867-5.091,4.057-9.6c0,0-5.385-3.145-3.613-4.874a55.223,55.223,0,0,0,4.941-6.683s.145-18.535,0-21.3a22.959,22.959,0,0,1,.271-5.755c.059-.283.13-.562.2-.841a50.221,50.221,0,0,0,7.414.562q1.36,0,2.752-.055,0,.393.035.849c.2,4.591.586,12.646.9,15.637.44,4.285,2.873,15.846,2.873,15.846s-4.642,2.976.81,10.323c0,0,0,2.657-.362,3.047h0a33.253,33.253,0,0,0-.932,3.841,6.749,6.749,0,0,0,.047,3.506c.884,1.737,6.191,1.6,6.191,1.6h0a.837.837,0,0,1,.13-.02,7.575,7.575,0,0,1,5.617,1.69c2.017,1.62,9.666.912,13.814.393,1.623-.208,2.708-.393,2.708-.393a1.593,1.593,0,0,0,.055-.566h0c-.043-1.018-.841-3.251-6.25-5.244,0,0-5.087-3.42-5.016-6.4h-.7c.37-.012.629-.012.629-.012s-1.993-7.268-1.179-7.862-1.624-8.648-1.624-8.648-1.4-13.523-1.474-14.466a8.31,8.31,0,0,1,.37-2.4l-.37-7.418s-.071-2.465,0-3.267a15.352,15.352,0,0,0-.165-2.079c-.035-.275-.071-.562-.11-.845,1.906-.483,3.145-.928,3.145-.928l-.22-25.807c1.62-3.145,1.918-10.048,1.91-14.938,0-3.145-.142-5.472-.142-5.472l2.213-3.613s.511-4.324-.3-5.271a.907.907,0,0,1,.1-1.238,4.115,4.115,0,0,1,.491-.346.613.613,0,0,1-.051-.086,3.9,3.9,0,0,1,.491-.35s-.786-1.219-.083-1.734c.66.448,1.25.806,1.7,1.061-.031.287-.063.452-.063.452l.189-.393.7.393s3.467-6.907,3.392-7.921,2.359-5.307,2.359-5.307a5.317,5.317,0,0,1,1.623-3.2c1.329-.943,1.03-7.779,1.03-7.779s.37-3.561,1.254-5.012S854.273,350.657,854.273,350.657Zm-66.339-3.031.067,1.647c-.393-.633-.676-1.085-.676-1.085Z" transform="translate(-473.591 -167.61)"/>
    <path id="Path_492" data-name="Path 492" class="cls-3" d="M947.45,543.676l-.849,3.617s-6.8-3.479-8.023-7.882,2.048-6.081,2.048-6.081l6.341,2.681Z" transform="translate(-575.432 -330.973)"/>
    <path id="Path_493" data-name="Path 493" class="cls-4" d="M947.45,543.676l-.849,3.617s-6.8-3.479-8.023-7.882,2.048-6.081,2.048-6.081l6.341,2.681Z" transform="translate(-575.432 -330.973)"/>
    <path id="Path_494" data-name="Path 494" class="cls-3" d="M840.72,850.681s-6.29,2.311-10.614,2.6a4.038,4.038,0,0,1-4.124-2.61,7.975,7.975,0,0,1-.653-2.359l.57-6.231.3-3.314,9.187-2.39,1.3,3.982.122.3c.519,1.333,2.618,6.734,2.555,7.862A2.158,2.158,0,0,0,840,850.1a3.648,3.648,0,0,0,.715.586Z" transform="translate(-506.867 -514.895)"/>
    <path id="Path_495" data-name="Path 495" class="cls-3" d="M930.154,846.845a1.572,1.572,0,0,1-.055.566s-13.452,2.241-16.2,0a7.284,7.284,0,0,0-5.645-1.663s-5.2.141-6.073-1.572a6.811,6.811,0,0,1-.043-3.487,33.431,33.431,0,0,1,.912-3.821l.208-.165,1.238-.995,14.5-.429h.11c-.071,2.964,4.918,6.364,4.918,6.364C929.328,843.61,930.11,845.831,930.154,846.845Z" transform="translate(-553.359 -514.227)"/>
    <path id="Path_496" data-name="Path 496" class="cls-4" d="M930.154,855.19a1.621,1.621,0,0,1-.059.566s-13.452,2.241-16.2,0a7.284,7.284,0,0,0-5.649-1.663s-5.209.141-6.077-1.572a6.869,6.869,0,0,1-.043-3.491c2,.2,5.169.7,6.411,1.895,1.879,1.808,5.063,3.617,7.013,3.762C917.091,854.781,926.254,855.072,930.154,855.19Z" transform="translate(-553.355 -522.572)"/>
    <path id="Path_497" data-name="Path 497" class="cls-4" d="M841.727,871.831s-6.29,2.311-10.614,2.6a4.038,4.038,0,0,1-4.124-2.61c1.6.539,3.825,1.1,4.992.586,1.384-.617,6.29-1.01,9.041-1.179A3.58,3.58,0,0,0,841.727,871.831Z" transform="translate(-507.875 -536.046)"/>
    <path id="Path_498" data-name="Path 498" class="cls-10" d="M872.075,362.45c-5.189-2.017-11.864-8.68-10.2-11.793a7.049,7.049,0,0,0,.649-2.5,22.822,22.822,0,0,0,.047-3.538,48.578,48.578,0,0,0-.7-5.759s16.2.366,15.256,2.752a8.853,8.853,0,0,0-.244,3.274c.079,1.356.271,2.9.476,4.2.279,1.781.566,3.145.566,3.145s-.995,1.388-1.572,1.462S879.52,365.339,872.075,362.45Z" transform="translate(-528.89 -212.949)"/>
    <path id="Path_499" data-name="Path 499" class="cls-4" d="M837.648,840.611l-.122.134c-4.843-5.857-10.7,1.447-10.7,1.447l-.086-.157.3-3.314,9.187-2.39,1.3,3.982Z" transform="translate(-507.723 -514.865)"/>
    <path id="Path_500" data-name="Path 500" class="cls-4" d="M920.839,835.669s-3.538-.071-5.425,1.6-11.007.358-10.614,0a1.36,1.36,0,0,0,.2-.6l1.238-.995,14.5-.429C920.8,835.515,920.839,835.669,920.839,835.669Z" transform="translate(-555.091 -514.203)"/>
    <path id="Path_501" data-name="Path 501" class="cls-5" d="M837.491,707.334a11.029,11.029,0,0,0-.6,2.017,23.08,23.08,0,0,0-.271,5.723c.146,2.752,0,21.192,0,21.192a56.106,56.106,0,0,1-4.847,6.651c-1.737,1.734,3.538,4.847,3.538,4.847.786,4.485-3.978,9.548-3.978,9.548-4.843-5.857-10.7,1.443-10.7,1.443s-3.184-5.5-3.978-7.469,3.109-3.322,4.481-4.124-.071-5.5-.071-5.5-1.156-4.124-2.531-7.886,1.517-22.485,1.517-22.485a29.057,29.057,0,0,1,.507-4.489,7.6,7.6,0,0,0,.106-2.547c-.023-.287-.051-.523-.071-.688s-.035-.236-.035-.236l.055-.094,1.965-3.664S838.435,705.026,837.491,707.334Z" transform="translate(-501.54 -431.865)"/>
    <path id="Path_502" data-name="Path 502" class="cls-5" d="M914.28,758.863s-3.538-.075-5.425,1.572-11.007.362-10.614,0,.358-3.035.358-3.035c-5.35-7.308-.786-10.272-.786-10.272s-2.386-11.5-2.818-15.763c-.3-2.976-.676-11.007-.877-15.555-.087-1.965-.138-3.322-.138-3.322l4.332-.861.562-.11,10.543-2.119s.291,1.965.487,3.573a15.712,15.712,0,0,1,.161,2.072c-.067.786,0,3.251,0,3.251l.362,7.375a8.5,8.5,0,0,0-.362,2.386c.075.943,1.447,14.391,1.447,14.391s2.386,8.027,1.572,8.6S914.28,758.863,914.28,758.863Z" transform="translate(-548.531 -437.83)"/>
    <path id="Path_503" data-name="Path 503" class="cls-4" d="M877.536,341.642a8.853,8.853,0,0,0-.244,3.275,13.464,13.464,0,0,1-14.317-.267,48.593,48.593,0,0,0-.7-5.759S878.48,339.256,877.536,341.642Z" transform="translate(-529.292 -212.967)"/>
    <path id="Path_504" data-name="Path 504" class="cls-10" d="M875.476,303.042a13.449,13.449,0,1,1-26.9.322v-.322a13.452,13.452,0,1,1,26.9,0Z" transform="translate(-520.978 -183.047)"/>
    <path id="Path_505" data-name="Path 505" class="cls-4" d="M872.075,376.8c-5.189-2.017-11.864-8.68-10.2-11.793a7.05,7.05,0,0,0,.649-2.5l7.1,5.841,4.395,3.6,3.341-8.5c.279,1.781.566,3.145.566,3.145s-.995,1.388-1.572,1.462S879.52,379.692,872.075,376.8Z" transform="translate(-528.89 -227.302)"/>
    <path id="Path_506" data-name="Path 506" class="cls-5" d="M866.964,383.117l-5.932,99.65-7.736.507L833.26,425.493l3.286-68.6.7-14.493,8.908,7.316,4.395,3.6,3.44-8.754,6.4,5.574Z" transform="translate(-505.41 -207.801)"/>
    <path id="Path_507" data-name="Path 507" class="cls-4" d="M843.669,707.382a11.024,11.024,0,0,0-.6,2.017,57,57,0,0,1-16.235-5.067l-.106-.055.035-.633v-.33l1.965-3.664S844.612,705.075,843.669,707.382Z" transform="translate(-507.717 -431.913)"/>
    <path id="Path_508" data-name="Path 508" class="cls-4" d="M898.405,718.773a39.841,39.841,0,0,1-4.348.5c-.087-1.966-.138-3.322-.138-3.322l4.356-.88Z" transform="translate(-548.495 -441.272)"/>
    <path id="Path_509" data-name="Path 509" class="cls-4" d="M917.5,712.973a30.523,30.523,0,0,1-10.975,1.034l-.055-2.488,10.543-2.119S917.292,711.35,917.5,712.973Z" transform="translate(-556.111 -437.83)"/>
    <path id="Path_510" data-name="Path 510" class="cls-4" d="M827.721,502.95c-16.117,2.752-30.878-5.138-30.878-5.138l.141-2.673s.366-30.3-.649-32.627-1.8-14.089-1.23-15.885-2.1-28.92-2.1-28.92l-.432-11.007-15.838-6.435,7.076-14.753a53.3,53.3,0,0,0,2.461-6.368c1.23-3.833,6.942-7.595,6.942-7.595s5.857-3.758,8.173-3.616,5.35-3.326,5.35-3.326c2.241-5.712,4.269-3.145,4.269-3.145a5.054,5.054,0,0,1-.11.845c-.786,6.27,12.713,26.082,12.905,26.436h0l1.3,31.314,1.3,39.628Z" transform="translate(-477.378 -226.317)"/>
    <path id="Path_511" data-name="Path 511" class="cls-3" d="M826.6,502.95c-16.117,2.752-30.882-5.138-30.882-5.138l.146-2.673s.362-30.3-.652-32.627-1.8-14.1-1.227-15.913-2.107-28.908-2.107-28.908l-.436-11.007-15.834-6.435,7.076-14.753a54.127,54.127,0,0,0,2.461-6.364c1.23-3.821,6.962-7.587,6.962-7.587s5.857-3.758,8.169-3.617,5.362-3.322,5.362-3.322c2.245-5.712,4.717-3.145,4.717-3.145,0,.275-.236.393-.11.845,1.73,6.081,12.28,26.082,12.473,26.436h0l1.3,31.314,1.274,39.648Z" transform="translate(-476.692 -226.317)"/>
    <path id="Path_512" data-name="Path 512" class="cls-4" d="M871.357,391.013c-1.734-.723-10.916-11.207-10.916-11.207V377.42c-.334-.786-2.323-.307-3.931.244l.692-14.494.786.653C859.706,369.9,871.169,390.663,871.357,391.013Z" transform="translate(-525.79 -227.703)"/>
    <path id="Path_513" data-name="Path 513" class="cls-3" d="M872.461,388.831c-1.737-.727-10.92-11.207-10.92-11.207v-2.39c-.334-.786-2.319-.307-3.931.244L858.29,361l.786.649C860.81,367.718,872.269,388.478,872.461,388.831Z" transform="translate(-526.458 -226.386)"/>
    <path id="Path_514" data-name="Path 514" class="cls-4" d="M826.515,563.016c.216,0,11.207-1.156,11.207-1.156s6.655,13.09,6.219,16.27-1.226,6-3.9,5.5-14.407.393-14.407.393Z" transform="translate(-507.049 -348.288)"/>
    <path id="Path_515" data-name="Path 515" class="cls-3" d="M825.4,560.806c.22,0,11.211-1.156,11.211-1.156s6.651,13.11,6.219,16.255-1.23,6-3.9,5.5-14.411.393-14.411.393Z" transform="translate(-506.376 -346.947)"/>
    <path id="Path_516" data-name="Path 516" class="cls-10" d="M838.56,547s10.087,5.425,10.3,7.076-5.134-.723-6.29-1.014a14.99,14.99,0,0,0-2.315-.362l-7.709.208Z" transform="translate(-511.249 -339.27)"/>
    <circle id="Ellipse_71" data-name="Ellipse 71" class="cls-4" cx="1.061" cy="1.061" r="1.061" transform="translate(341.687 161.864)"/>
    <circle id="Ellipse_72" data-name="Ellipse 72" class="cls-6" cx="1.061" cy="1.061" r="1.061" transform="translate(341.687 161.431)"/>
    <circle id="Ellipse_73" data-name="Ellipse 73" class="cls-4" cx="1.061" cy="1.061" r="1.061" transform="translate(343.641 207.809)"/>
    <circle id="Ellipse_74" data-name="Ellipse 74" class="cls-6" cx="1.061" cy="1.061" r="1.061" transform="translate(343.641 207.373)"/>
    <circle id="Ellipse_75" data-name="Ellipse 75" class="cls-4" cx="1.061" cy="1.061" r="1.061" transform="translate(342.748 184.836)"/>
    <circle id="Ellipse_76" data-name="Ellipse 76" class="cls-6" cx="1.061" cy="1.061" r="1.061" transform="translate(342.748 184.404)"/>
    <path id="Path_517" data-name="Path 517" class="cls-3" d="M921.462,441.9s.723,1.085,0,1.572.071,1.737.071,1.737-1.8,1.053-1.01,2.009.291,5.244.291,5.244l-2.17,3.613s.13,2.315.138,5.444c0,4.882-.287,11.746-1.875,14.875l.212,25.673s-7.6,2.779-13.959,1.93l-.944-41.2s1.376-23.362,1.883-27.843a46.649,46.649,0,0,0,.362-7.017,78.31,78.31,0,0,0-.943-10.264s-.786-14.1-.865-18.008c-.035-1.867.063-7.316.173-12.5.122-5.665.259-11.007.259-11.007l-1.435-11.357s1.435-.142,1.867.432a4.141,4.141,0,0,0,.629.483h0c2.48,1.675,11.231,6.824,11.231,6.824s4.843,1.926,6,4.686a40.83,40.83,0,0,0,2.528,5.5c.562.786.869,4.481.869,4.481s1.667,6.8,2.968,7.952,2.237,8.463,2.237,8.463l-11.5,9.041s-1.01,15.04-1.226,15.622S921.462,441.9,921.462,441.9Z" transform="translate(-553.186 -228.686)"/>
    <path id="Path_518" data-name="Path 518" class="cls-3" d="M921.88,441.684s.719,1.085,0,1.572.067,1.737.067,1.737-1.8,1.054-1.01,2.009.291,5.244.291,5.244l-2.162,3.613s.13,2.315.142,5.444c0,4.882-.287,11.746-1.875,14.875l.216,25.673s-7.6,2.779-13.959,1.93l-.94-41.2s1.372-23.362,1.883-27.843a46.217,46.217,0,0,0,.358-7.017,78.818,78.818,0,0,0-.94-10.264s-.786-14.1-.869-18.008c-.035-1.867.063-7.316.173-12.5.122-5.665.259-11.007.259-11.007l-1.895-11.51s1.895,0,2.331.586a3.729,3.729,0,0,0,.629.484h0c2.477,1.675,11.227,6.824,11.227,6.824s4.831,1.926,6.01,4.686a43.583,43.583,0,0,0,2.528,5.5c.562.786.869,4.481.869,4.481s1.667,6.8,2.968,7.952,2.241,8.463,2.241,8.463l-11.5,9.041s-1.01,15.04-1.23,15.622S921.88,441.684,921.88,441.684Z" transform="translate(-553.168 -228.473)"/>
    <path id="Path_519" data-name="Path 519" class="cls-4" d="M908.772,380.622l1.042,3.027-5.468,5.5c.122-5.665.259-11.007.259-11.007L902.71,366.64s1.895,0,2.331.586a3.728,3.728,0,0,0,.629.484h0l4.646,13.4Z" transform="translate(-553.829 -229.809)"/>
    <path id="Path_520" data-name="Path 520" class="cls-3" d="M907.642,378.4l1.042,3.023-5.464,5.5c.118-5.665.259-11.007.259-11.007l-1.9-11.51s1.9,0,2.331.586a3.932,3.932,0,0,0,.629.484h0l4.674,13.412Z" transform="translate(-553.143 -228.455)"/>
    <path id="Path_521" data-name="Path 521" class="cls-4" d="M875.476,303.042a13.409,13.409,0,0,1-.66,4.171.558.558,0,0,1-.425-.1c-.106-3.538-1.844-6.864-3.986-9.69a10.266,10.266,0,0,0-2.162-2.241,4.234,4.234,0,0,0-2.932-.829c-1.179.161-2.221.963-3.412,1.065-1.572.13-2.98-.959-4.54-1.01a4.45,4.45,0,0,0-3.337,1.549,9.1,9.1,0,0,0-1.789,3.314,19.4,19.4,0,0,0-1,5.724c-.02,1.1-.126,2.48-1.148,2.881a5.857,5.857,0,0,0-1.482-4.481l-.024-.028v-.322a13.452,13.452,0,0,1,26.9,0Z" transform="translate(-520.978 -183.047)"/>
    <path id="Path_522" data-name="Path 522" class="cls-11" d="M861.3,268.12a9.261,9.261,0,0,0-6.533-.511c-1.089.322-2.115.845-3.219,1.109-2.359.57-5.11-.047-7.135,1.333a8.516,8.516,0,0,0-2.429,3.239l-1.572,2.992a19.434,19.434,0,0,0-2.079,5.11,6.536,6.536,0,0,0,1,5.279c.829,1.053,2.064,1.718,2.968,2.712a5.9,5.9,0,0,1,1.478,4.493c1.022-.393,1.124-1.781,1.148-2.881a19.435,19.435,0,0,1,1-5.724,9.106,9.106,0,0,1,1.789-3.314,4.454,4.454,0,0,1,3.337-1.553c1.572.055,2.984,1.144,4.54,1.01,1.179-.1,2.225-.9,3.412-1.061a4.214,4.214,0,0,1,2.933.829,10.071,10.071,0,0,1,2.158,2.241c2.146,2.83,3.888,6.14,3.99,9.69.444.322,1.085-.1,1.305-.605a14.371,14.371,0,0,1,.507-1.572,5.812,5.812,0,0,1,1.423-1.27,5.564,5.564,0,0,0,1.486-4.454,22.19,22.19,0,0,1-.055-4.843c.185-.971.6-1.887.829-2.85a3.726,3.726,0,0,0-.283-2.874c-.786-1.215-2.441-1.458-3.884-1.572-1.639-.142-3.105.039-4.151-1.34a15.362,15.362,0,0,0-1.651-2.021C863.39,269.5,861.3,268.207,861.3,268.12Z" transform="translate(-514.659 -169.482)"/>
    <path id="Path_523" data-name="Path 523" class="cls-4" d="M779.935,468.641l-4.1-7.591-1.3,11.714a54.3,54.3,0,0,1,.578,6c-.145.8,2.964,7.952,2.964,7.952s10.272,18.3,14.466,19.238l14.151-10.126-3.758-4.772s-1.3-.507-1.628,0c0,0-6.981-12.005-7.7-12.87a4.374,4.374,0,0,1-.582-2.606s-1.085-1.156-.723-2.241-2.076-4.843-2.076-4.843l2.241-2.1Z" transform="translate(-476.037 -287.106)"/>
    <path id="Path_524" data-name="Path 524" class="cls-3" d="M774.706,458.84l-1.085.869-1.3,11.714a54.315,54.315,0,0,1,.578,6c-.146.8,2.968,7.952,2.968,7.952s10.268,18.3,14.462,19.238L804.5,494.49l-3.762-4.772s-1.3-.507-1.627,0c0,0-6.977-12.005-7.7-12.87a4.329,4.329,0,0,1-.578-2.606s-1.085-1.156-.723-2.241-2.1-4.843-2.1-4.843l2.241-2.1Z" transform="translate(-474.695 -285.765)"/>
    <path id="Path_525" data-name="Path 525" class="cls-4" d="M936.992,564.817c.786.955.291,5.248.291,5.248l-2.17,3.589s.13,2.319.138,5.448l-3.648,1.14a2.17,2.17,0,0,1-2.815-2.138l.633-20.284,8.51,3.251c-.723.5.071,1.737.071,1.737S936.2,563.862,936.992,564.817Z" transform="translate(-569.656 -345.836)"/>
    <path id="Path_526" data-name="Path 526" class="cls-3" d="M938.1,563.711c.786.951.291,5.244.291,5.244l-2.162,3.593s.13,2.315.142,5.444l-3.715,1.16a2.119,2.119,0,0,1-2.752-2.087l.633-20.355,8.507,3.259c-.727.5.067,1.737.067,1.737S937.31,562.756,938.1,563.711Z" transform="translate(-570.335 -345.163)"/>
    <path id="Path_527" data-name="Path 527" class="cls-10" d="M947.426,545.013s-.578,3.691-2.025,3.907-2.1,5.971-3.538,5.771-.487-5.354-.436-6.352-1.572-5.134-.362-6.073,5.063,0,5.063,0Z" transform="translate(-576.835 -336.143)"/>
    <path id="Path_528" data-name="Path 528" class="cls-4" d="M948.147,469.1l2.724-5.5a35.611,35.611,0,0,1,1.089,6.435c0,2.241,1.517,2.461,1.517,2.461s1.663,1.965.786,3.4-1.227,4.988-1.227,4.988.287,6.8-1.014,7.736a5.337,5.337,0,0,0-1.592,3.184s-2.386,4.265-2.311,5.279-3.326,7.882-3.326,7.882,1.663-8.534-8.027-12.221c0,0-.075-2.893.649-3.687s1.852-1.179,1.144-5.173a46.884,46.884,0,0,1-.2-9.772c0-.963,2.17-6.966,2.17-6.966Z" transform="translate(-574.497 -288.654)"/>
    <path id="Path_529" data-name="Path 529" class="cls-3" d="M950.724,461.6l2.382.786a35.613,35.613,0,0,1,1.089,6.435c0,2.241,1.517,2.461,1.517,2.461s1.663,1.966.786,3.4-1.23,4.988-1.23,4.988.291,6.8-1.01,7.736-1.572,3.184-1.572,3.184-2.386,4.265-2.311,5.279-3.329,7.882-3.329,7.882,1.663-8.534-8.027-12.221c0,0-.071-2.893.652-3.687s1.852-1.179,1.144-5.173a46.884,46.884,0,0,1-.2-9.772c0-.963,2.17-6.966,2.17-6.966Z" transform="translate(-575.863 -287.44)"/>
    <path id="Path_530" data-name="Path 530" class="cls-4" d="M834.92,822.488s3.8-2.386,6.29-.653S834.92,822.488,834.92,822.488Z" transform="translate(-512.687 -505.685)"/>
    <path id="Path_531" data-name="Path 531" class="cls-4" d="M910,805.667a7.687,7.687,0,0,1,6.183,2.606C919.006,811.312,910,805.667,910,805.667Z" transform="translate(-558.254 -496.242)"/>
    <g id="Group_22" data-name="Group 22" class="cls-7" transform="translate(323.504 106.413)">
      <path id="Path_532" data-name="Path 532" d="M879.983,307.684c-.483.421-1.1.715-1.427,1.27a14.69,14.69,0,0,0-.5,1.572c-.22.507-.861.928-1.309.605-.1-3.538-1.844-6.86-3.986-9.69a10.054,10.054,0,0,0-2.158-2.237,4.226,4.226,0,0,0-2.937-.833c-1.179.161-2.217.963-3.408,1.065-1.572.13-2.984-.959-4.544-1.01a4.434,4.434,0,0,0-3.333,1.549,9.1,9.1,0,0,0-1.789,3.314,19.433,19.433,0,0,0-1,5.723c-.024,1.1-.126,2.465-1.14,2.874a5.445,5.445,0,0,1,0,.877c1.026-.393,1.128-1.781,1.152-2.881a19.433,19.433,0,0,1,1-5.723,9.1,9.1,0,0,1,1.789-3.314,4.449,4.449,0,0,1,3.333-1.553c1.572.055,2.988,1.144,4.544,1.01,1.179-.1,2.225-.9,3.408-1.061a4.226,4.226,0,0,1,2.937.829,10.069,10.069,0,0,1,2.158,2.241c2.142,2.83,3.884,6.14,3.986,9.69.448.322,1.089-.1,1.309-.605a15.25,15.25,0,0,1,.5-1.572,5.831,5.831,0,0,1,1.427-1.27,5.564,5.564,0,0,0,1.486-4.454v-.149A5.169,5.169,0,0,1,879.983,307.684Z" transform="translate(-846.831 -294.779)"/>
      <path id="Path_533" data-name="Path 533" d="M842.284,312.232c-.9-.995-2.135-1.663-2.964-2.716a5.7,5.7,0,0,1-1.144-3.216,6.058,6.058,0,0,0,1.144,4.084c.829,1.054,2.064,1.718,2.964,2.712a5.9,5.9,0,0,1,1.486,3.506A5.9,5.9,0,0,0,842.284,312.232Z" transform="translate(-838.155 -299.602)"/>
      <path id="Path_534" data-name="Path 534" d="M926.749,290.019c-.232.963-.645,1.879-.833,2.85a9.1,9.1,0,0,0-.122,1.989,7.629,7.629,0,0,1,.122-1.12c.189-.971.6-1.887.833-2.85a4.936,4.936,0,0,0,.13-1.627,5.451,5.451,0,0,1-.13.759Z" transform="translate(-891.336 -289.26)"/>
    </g>
    <ellipse id="Ellipse_77" data-name="Ellipse 77" class="cls-1" cx="38.303" cy="6.152" rx="38.303" ry="6.152" transform="translate(14.17 317.46)"/>
    <rect id="Rectangle_40" data-name="Rectangle 40" class="cls-12" width="2.465" height="55.494" transform="translate(51.243 205.757)"/>
    <path id="Path_535" data-name="Path 535" class="cls-6" d="M139.58,676.916l-.157,2.5-.216,3.538-.09,1.47-.22,3.538-.094,1.47-.216,3.538L136.1,733.093a6.793,6.793,0,0,1-6.781,6.376H116.395a6.789,6.789,0,0,1-6.781-6.4l-2.488-40.124-.216-3.538-.09-1.47L106.6,684.4l-.09-1.47-.216-3.538-.157-2.5a3.538,3.538,0,0,1,3.514-3.738H136.07a3.538,3.538,0,0,1,3.51,3.766Z" transform="translate(-70.38 -415.83)"/>
    <path id="Path_536" data-name="Path 536" class="cls-13" d="M123.718,670.52l-.22,3.53H90.8l-.22-3.53Z" transform="translate(-54.676 -406.938)"/>
    <path id="Path_537" data-name="Path 537" class="cls-13" d="M123.887,683.24l-.216,3.53H91.59l-.22-3.53Z" transform="translate(-55.155 -414.658)"/>
    <path id="Path_538" data-name="Path 538" class="cls-13" d="M124.056,695.97l-.216,3.526H92.38l-.22-3.526Z" transform="translate(-55.635 -422.384)"/>
    <path id="Path_539" data-name="Path 539" class="cls-5" d="M48.108,577.967C62.464,588.353,68.443,604.6,68.443,604.6s-17.3-.594-31.656-10.979S16.44,567,16.44,567,33.736,567.582,48.108,577.967Z" transform="translate(-15.95 -351.408)"/>
    <path id="Path_540" data-name="Path 540" class="cls-14" d="M16.44,567s17.953,9.965,23.712,18.216S68.427,604.6,68.427,604.6" transform="translate(-15.95 -351.408)"/>
    <path id="Path_541" data-name="Path 541" class="cls-5" d="M93.929,532.455A34.8,34.8,0,0,1,105,546.945a34.777,34.777,0,0,1-17.229-5.971A35.005,35.005,0,0,1,76.7,526.48,34.8,34.8,0,0,1,93.929,532.455Z" transform="translate(-52.522 -326.816)"/>
    <path id="Path_542" data-name="Path 542" class="cls-14" d="M76.7,526.48s9.772,5.425,12.909,9.914S105,546.945,105,546.945" transform="translate(-52.522 -326.816)"/>
    <path id="Path_543" data-name="Path 543" class="cls-5" d="M160.783,557.372c-8.974,9.863-10.873,22.753-10.873,22.753s12.654-3.105,21.62-12.972S182.4,544.4,182.4,544.4,169.757,547.509,160.783,557.372Z" transform="translate(-96.953 -337.692)"/>
    <path id="Path_544" data-name="Path 544" class="cls-14" d="M182.411,544.41s-11.691,10.11-14.663,17.076-17.839,18.645-17.839,18.645" transform="translate(-96.953 -337.698)"/>
  </g>
</svg>
